<svg width="30" height="31" viewBox="0 0 30 31" fill="none" xmlns="http://www.w3.org/2000/svg">
<path d="M21.6305 10.7404C22.0881 11.198 22.0881 11.9404 21.6305 12.398L13.7689 20.2602C13.3113 20.7178 12.5695 20.7178 12.1113 20.2602L8.36895 16.5172C7.91133 16.0596 7.91133 15.3178 8.36895 14.8602C8.82656 14.4025 9.56836 14.4025 10.026 14.8602L12.9398 17.774L19.9729 10.7404C20.4305 10.2828 21.1729 10.2828 21.6305 10.7404ZM30 15.5C30 23.791 23.2898 30.5 15 30.5C6.71016 30.5 0 23.7898 0 15.5C0 7.21016 6.71016 0.5 15 0.5C23.2898 0.5 30 7.21016 30 15.5ZM27.6562 15.5C27.6562 8.50449 21.9949 2.84375 15 2.84375C8.00508 2.84375 2.34375 8.50508 2.34375 15.5C2.34375 22.4949 8.00508 28.1562 15 28.1562C21.9949 28.1562 27.6562 22.4949 27.6562 15.5Z" fill="black"/>
</svg>
