<?xml version="1.0" encoding="utf-8"?>
<!-- Generator: Adobe Illustrator 27.9.0, SVG Export Plug-In . SVG Version: 6.00 Build 0)  -->
<svg version="1.1" id="Capa_1" xmlns="http://www.w3.org/2000/svg" xmlns:xlink="http://www.w3.org/1999/xlink" x="0px" y="0px"
	 viewBox="0 0 205 62" style="enable-background:new 0 0 205 62;" xml:space="preserve">
<style type="text/css">
	.st0{fill:#01010C;}
</style>
<path class="st0" d="M133.4,36V23.6H129v-2.3h11.8v2.3h-4.4V36H133.4z M140.3,36V25.3h2.9v3.3c0.6-2,1.8-3.4,3.7-3.4h0V28
	c-2.5,0-3.7,1-3.7,4.1V36H140.3z M157.8,25.3V36h-2.9v-2.4c-0.8,1.4-2.1,2.5-3.9,2.5c-2.2,0-3-1.5-3-4v-6.9h2.9l0,6.4
	c0,1.7,0.5,2.3,1.6,2.3c1.2,0,2.2-1.2,2.4-2.6v-6H157.8z M164.1,36.1c-2.9,0-4.5-1.5-5-3.3l2.6-0.6c0.4,1.1,1.1,1.8,2.5,1.8
	c1.2,0,1.8-0.5,1.8-1.2c0-0.7-0.5-1-1.4-1.2l-1.8-0.4c-2.1-0.5-3.3-1.1-3.3-2.9c0-1.9,1.7-3.2,4.2-3.2c2.8,0,4.3,1.3,4.8,2.9
	l-2.6,0.6c-0.3-0.8-0.9-1.4-2.2-1.4c-1,0-1.6,0.4-1.6,1c0,0.6,0.5,0.9,1.2,1.1l2.2,0.5c2,0.4,3.1,1.3,3.1,2.9
	C168.6,34.6,167.1,36.1,164.1,36.1z M174.1,36c-2.3,0-3.6-1.2-3.6-3.4v-4.9h-1.3v-2.3h1.3v-1.9l2.9-1v2.9h2.3v2.3h-2.3v4.9
	c0,0.7,0.4,1.1,1.1,1.1h1.2V36H174.1z M181.6,36.1c-3.3,0-5.4-2.2-5.4-5.3c0-3.1,2-5.6,5.4-5.6c3,0,5,2.2,5,5.1c0,0.3,0,0.7-0.1,0.9
	h-7.5c0.1,1.9,1.2,2.8,2.6,2.8c1.3,0,1.9-0.9,2.3-1.8l2.6,0.6C186.1,34.6,184.4,36.1,181.6,36.1z M179.3,29.4h4.5
	c-0.2-1.2-0.9-2.1-2.2-2.1C180.4,27.3,179.6,28.1,179.3,29.4z M195.7,36v-2.2c-0.6,1.4-1.7,2.4-3.4,2.4c-2.6,0-4.6-2.1-4.6-5.5
	c0-3.4,2-5.4,4.5-5.4c1.7,0,2.9,0.9,3.6,2.5v-6.4h2.9V36H195.7z M190.7,30.6c0,2.1,0.9,3.4,2.4,3.4c1.6,0,2.6-1.3,2.6-3.2
	c0-2-1.1-3.4-2.6-3.4C191.6,27.4,190.7,28.6,190.7,30.6z M88.8,57.1c-4.5,0-7.2-2.9-7.2-7.5c0-4.5,2.9-7.5,7.1-7.5
	c3.4,0,5.6,2,6.4,5l-2.9,0.7c-0.5-1.9-1.7-3.2-3.6-3.2c-2.4,0-4.1,2-4.1,4.9c0,3.2,1.6,5.2,4.3,5.2c1.7,0,3.1-1,3.5-3l2.9,0.7
	C94.5,55.1,92.1,57.1,88.8,57.1z M101.3,57.1c-3.1,0-5.5-2.2-5.5-5.5c0-3.3,2.3-5.5,5.5-5.5c3.2,0,5.5,2.2,5.5,5.5
	C106.8,55,104.5,57.1,101.3,57.1z M98.8,51.7c0,2.1,0.9,3.3,2.5,3.3c1.6,0,2.5-1.1,2.5-3.3c0-2.1-0.9-3.3-2.5-3.3
	C99.8,48.4,98.8,49.5,98.8,51.7z M108.4,57V46.3h2.9v2.4c0.8-1.4,2.1-2.5,3.9-2.5c2.2,0,3,1.5,3,3.9V57h-2.9v-6.4
	c0-1.7-0.5-2.3-1.6-2.3c-1.3,0-2.2,1.3-2.4,2.8V57H108.4z M120.2,57V46.3h2.9v2.4c0.8-1.4,2.1-2.5,3.9-2.5c2.2,0,3,1.5,3,3.9V57
	h-2.9v-6.4c0-1.7-0.5-2.3-1.6-2.3c-1.3,0-2.2,1.3-2.4,2.8V57H120.2z M136.8,57.1c-3.3,0-5.4-2.2-5.4-5.3c0-3.1,2-5.6,5.4-5.6
	c3,0,5,2.2,5,5.1c0,0.3,0,0.7-0.1,0.9h-7.5c0.1,1.9,1.2,2.8,2.6,2.8c1.3,0,1.9-0.9,2.3-1.8l2.6,0.6
	C141.3,55.6,139.6,57.1,136.8,57.1z M134.4,50.4h4.5c-0.2-1.2-0.9-2.1-2.2-2.1C135.6,48.3,134.8,49.1,134.4,50.4z M148.4,57.1
	c-3.1,0-5.5-2.2-5.5-5.4c0-3.4,2.4-5.5,5.5-5.5c2.6,0,4.5,1.5,5,3.5l-2.8,0.7c-0.3-1.2-1.1-1.9-2.3-1.9c-1.5,0-2.5,1.4-2.5,3.2
	c0,2.2,1.1,3.3,2.6,3.3c1.1,0,1.9-0.6,2.3-1.9l2.7,0.6C152.8,55.6,151.1,57.1,148.4,57.1z M158.8,57c-2.3,0-3.6-1.2-3.6-3.4v-4.9
	h-1.3v-2.3h1.3v-1.9l2.9-1v2.9h2.3v2.3H158v4.9c0,0.7,0.4,1.1,1.1,1.1h1.2V57H158.8z M161.9,57V46.3h2.9V57H161.9z M161.8,45v-2.5
	h2.9V45H161.8z M169.5,57l-3.7-10.7h2.8l2.5,7.2l2.7-7.2h2.6L172.5,57H169.5z M177.4,57V46.3h2.9V57H177.4z M177.4,45v-2.5h2.9V45
	H177.4z M186.5,57c-2.3,0-3.6-1.2-3.6-3.4v-4.9h-1.3v-2.3h1.3v-1.9l2.9-1v2.9h2.3v2.3h-2.3v4.9c0,0.7,0.4,1.1,1.1,1.1h1.2V57H186.5z
	 M189.7,61.2v-2.4h1.1c1.2,0,1.6-0.5,1.9-1.4l0.1-0.3l-4.4-10.8h2.7l3,7.4l2.6-7.4h2.6l-4,11.1c-1,2.9-1.9,3.8-4.2,3.8H189.7z"/>
<path class="st0" d="M29,0.1h6.9L21.2,36.5h-6.5L0,0.1h7.1l11,28.1L29,0.1z"/>
<path class="st0" d="M55.8,9.6h5.9v26.9h-5.9v-4.2c-2.4,3.2-5.5,4.8-9.4,4.8s-7-1.3-9.5-4c-2.5-2.7-3.7-6.1-3.7-10.1s1.3-7.3,3.7-10
	c2.5-2.7,5.7-4.1,9.5-4.1c3.8,0,7.1,1.6,9.4,4.8V9.6L55.8,9.6z M53.5,29c1.6-1.6,2.4-3.6,2.4-6s-0.8-4.4-2.4-6
	c-1.6-1.6-3.5-2.4-5.9-2.4s-4.4,0.8-6,2.4c-1.6,1.6-2.4,3.6-2.4,6s0.8,4.4,2.4,6c1.6,1.6,3.6,2.4,6,2.4S51.9,30.6,53.5,29z"/>
<path class="st0" d="M72.4,31h4.7v5.4H66.5V0h5.9L72.4,31L72.4,31z"/>
<path class="st0" d="M115.1,0h5.9v36.5h-5.9v-4.2c-2.4,3.2-5.5,4.8-9.4,4.8s-7-1.3-9.5-4c-2.5-2.7-3.7-6.1-3.7-10.1s1.3-7.3,3.7-10
	c2.5-2.7,5.7-4.1,9.5-4.1c3.8,0,7.1,1.6,9.4,4.8V0z M112.7,29c1.6-1.6,2.4-3.6,2.4-6c0-2.4-0.8-4.4-2.4-6c-1.6-1.6-3.5-2.4-5.9-2.4
	s-4.4,0.8-6,2.4c-1.6,1.6-2.4,3.6-2.4,6c0,2.4,0.8,4.4,2.4,6c1.6,1.6,3.6,2.4,6,2.4S111.1,30.6,112.7,29z"/>
<path class="st0" d="M81.9,15h-4.7V9.6h10.5v26.9h-5.8V15L81.9,15z"/>
<path class="st0" d="M84.1,7.2c2,0,3.6-1.6,3.6-3.6S86.1,0,84.1,0c-2,0-3.6,1.6-3.6,3.6S82.1,7.2,84.1,7.2z"/>
</svg>
