<svg width="60" height="60" viewBox="0 0 60 60" fill="none" xmlns="http://www.w3.org/2000/svg">
<path d="M20.0086 46.2189L19.4145 47.0233L20.0086 46.2189ZM30 15.0525L29.3184 15.7842C29.7024 16.1419 30.2976 16.1419 30.6816 15.7842L30 15.0525ZM39.9914 46.219L40.5856 47.0234L39.9914 46.219ZM30 51L30 52H30V51ZM20.6027 45.4146C16.7875 42.5965 12.6033 39.0889 9.38251 35.3059C6.13878 31.4959 4 27.555 4 23.8541H2C2 28.2791 4.52124 32.6812 7.85967 36.6024C11.2211 40.5506 15.5412 44.1624 19.4145 47.0233L20.6027 45.4146ZM4 23.8541C4 16.8948 7.49697 12.2896 12.2667 10.6632C17.0696 9.02542 23.4457 10.3145 29.3184 15.7842L30.6816 14.3207C24.4048 8.47467 17.2808 6.84033 11.6212 8.77023C5.92824 10.7115 2 16.1651 2 23.8541H4ZM40.5856 47.0234C44.4589 44.1624 48.779 40.5507 52.1404 36.6024C55.4788 32.6812 58 28.2791 58 23.8541H56C56 27.5551 53.8612 31.496 50.6175 35.3059C47.3968 39.0889 43.2126 42.5966 39.3973 45.4146L40.5856 47.0234ZM58 23.8541C58 16.165 54.0718 10.7115 48.3788 8.77022C42.7192 6.84033 35.5952 8.47467 29.3184 14.3207L30.6816 15.7842C36.5543 10.3145 42.9304 9.02542 47.7333 10.6632C52.503 12.2896 56 16.8947 56 23.8541H58ZM19.4145 47.0233C23.6695 50.1662 26.0948 52 30 52L30 50C26.8681 50 24.9782 48.6464 20.6027 45.4146L19.4145 47.0233ZM39.3973 45.4146C35.0219 48.6464 33.132 50 30 50L30 52C33.9052 52 36.3306 50.1662 40.5856 47.0234L39.3973 45.4146Z" fill="#82CA93"/>
</svg>
