<svg width="30" height="30" viewBox="0 0 30 30" fill="none" xmlns="http://www.w3.org/2000/svg">
    <path d="M29.7152 28.3677L21.9697 20.7457C23.9981 18.5419 25.2442 15.6277 25.2442 12.4209C25.2432 5.56069 19.5923 0 12.6214 0C5.6504 0 0 5.56069 0 12.4209C0 19.2811 5.65089 24.8418 12.6219 24.8418C15.6341 24.8418 18.3963 23.8001 20.5663 22.0678L28.3417 29.7196C28.7206 30.0926 29.3358 30.0926 29.7147 29.7196C30.0946 29.3466 30.0946 28.7407 29.7157 28.3672L29.7152 28.3677ZM12.6219 22.931C6.72342 22.931 1.94213 18.2257 1.94213 12.4209C1.94213 6.61607 6.72342 1.91124 12.6219 1.91124C18.5203 1.91124 23.3016 6.61656 23.3016 12.4214C23.3016 18.2262 18.5203 22.9315 12.6219 22.9315V22.931Z" fill="#01010C"/>
</svg>
